<svg aria-hidden="true" viewBox="0 0 24 24" width="24" height="24" xmlns="http://www.w3.org/2000/svg" fill="currentColor" role="img"><path d="M11.72 3.004C6.61 3.134 3 6.836 3 12c0 5.257 3.743 9 9 9s9-3.743 9-9c0-5.164-3.61-8.866-8.72-8.996L12 3l-.28.004zm.582-2C18.508 1.147 23 5.738 23 12c0 6.362-4.638 11-11 11S1 18.362 1 12C1 5.739 5.492 1.148 11.698 1.003L12 1l.302.003z"/><path d="M11.825 7.005C10.439 7.082 9.5 8.078 9.5 9.5c0 1.481 1.019 2.5 2.5 2.5s2.5-1.019 2.5-2.5c0-1.422-.939-2.418-2.325-2.495L12 7l-.175.005zm.395-2c2.474.105 4.28 1.983 4.28 4.495 0 2.586-1.914 4.5-4.5 4.5-2.586 0-4.5-1.914-4.5-4.5 0-2.512 1.807-4.39 4.28-4.495L12 5l.22.005zM8.936 14.113l.784 1.84-1.332.562-.495.217-.279.128c-1.209.567-1.676.985-1.786 1.54l-.077.397-.077.41-1.967-.361.16-.836c.266-1.342 1.168-2.149 2.898-2.96l.368-.169.926-.398.877-.37zM14.47 14.113l-.784 1.84 1.51.64.46.204.136.063c1.209.567 1.676.985 1.786 1.54l.154.807 1.967-.361a59.827 59.827 0 00-.159-.836c-.266-1.342-1.168-2.149-2.898-2.96l-.368-.169-.425-.186-1.38-.582z"/></svg>