<svg aria-hidden="true" width="24" height="24" viewBox="0 0 24 24" xmlns="http://www.w3.org/2000/svg" fill="currentColor" role="img"><path d="M13.994 3.212a1.03 1.03 0 00-.49.124l-6.33 3.426a2.057 2.057 0 01-.979.248H2.033a1.014 1.014 0 00-1.02 1.008v7.964a1.014 1.014 0 001.02 1.008h4.163a2.058 2.058 0 01.979.248l6.33 3.426a1.026 1.026 0 001.383-.4.997.997 0 00.126-.484V4.22a1.014 1.014 0 00-1.02-1.008zM2.344 8.34H5.71v7.32H2.343zM13.683 12v7.248l-5.876-3.18a3.376 3.376 0 00-.768-.3V8.232a3.385 3.385 0 00.768-.3l5.875-3.18zM17.509 16.451l-.947-.934a5.33 5.33 0 001.443-3.52 5.289 5.289 0 00-1.44-3.52l.944-.937a6.705 6.705 0 011.826 4.457 6.625 6.625 0 01-1.826 4.454zM20.307 18.638l-.948-.934a8.847 8.847 0 002.343-5.714 8.88 8.88 0 00-2.337-5.709l.942-.941a10.164 10.164 0 012.725 6.65 10.295 10.295 0 01-2.725 6.648z"/></svg>